<?xml version="1.0" encoding="utf-8"?>
<!-- Generator: Adobe Illustrator 24.0.2, SVG Export Plug-In . SVG Version: 6.00 Build 0)  -->
<svg version="1.1" id="Layer_1" xmlns="http://www.w3.org/2000/svg" xmlns:xlink="http://www.w3.org/1999/xlink" x="0px" y="0px"
	 viewBox="0 0 1024 1024" style="enable-background:new 0 0 1024 1024;" xml:space="preserve">
<style type="text/css">
	.st0{fill:#A2A9B0;stroke:#A2A9B0;stroke-miterlimit:10;}
</style>
<g>
	<path class="st0" d="M512.3,1012.8c-86.3,0-156.5-70.2-156.5-156.5V543.4c0-86.3,70.2-156.5,156.5-156.5s156.5,70.2,156.5,156.5
		v312.9C668.7,942.6,598.5,1012.8,512.3,1012.8z M512.3,449.5c-51.8,0-93.9,42.1-93.9,93.9v312.9c0,51.8,42.1,93.9,93.9,93.9
		c51.8,0,93.9-42.1,93.9-93.9V543.4C606.1,491.6,564,449.5,512.3,449.5z"/>
	<path class="st0" d="M512.3,324.3c-86.3,0-156.5-70.2-156.5-156.5S426,11.4,512.3,11.4s156.5,70.2,156.5,156.5
		S598.5,324.3,512.3,324.3z M512.3,74c-51.8,0-93.9,42.1-93.9,93.9s42.1,93.9,93.9,93.9s93.9-42.1,93.9-93.9S564,74,512.3,74z"/>
</g>
</svg>
