<?xml version="1.0" encoding="utf-8"?>
<!-- Generator: Adobe Illustrator 24.0.2, SVG Export Plug-In . SVG Version: 6.00 Build 0)  -->
<svg version="1.1" id="Layer_1" xmlns="http://www.w3.org/2000/svg" xmlns:xlink="http://www.w3.org/1999/xlink" x="0px" y="0px"
	 viewBox="0 0 1024 1024" style="enable-background:new 0 0 1024 1024;" xml:space="preserve">
<style type="text/css">
	.st0{fill:#A2A9B0;}
</style>
<path class="st0" d="M163.7,1004h321.2V653.9H369.5V538.5h115.4V394.2c0-79.6,64.7-144.3,144.3-144.3h144.3v115.4H658
	c-31.8,0-57.7,25.9-57.7,57.7v115.4h167.9L749,653.9H600.3V1004H860c79.6,0,144.3-64.7,144.3-144.3V163.4
	c0-79.6-64.7-144.3-144.3-144.3H163.7c-79.6,0-144.3,64.7-144.3,144.3v696.3C19.4,939.3,84.1,1004,163.7,1004z M77.1,163.4
	c0-47.7,38.8-86.6,86.6-86.6H860c47.7,0,86.6,38.8,86.6,86.6v696.3c0,47.7-38.8,86.6-86.6,86.6H658V711.6h139.9l38.5-230.8H658
	v-57.7h173.1V192.2h-202c-111.4,0-202,90.6-202,202v86.6H311.8v230.8h115.4v234.7H163.7c-47.7,0-86.6-38.8-86.6-86.6V163.4z"/>
</svg>
