<?xml version="1.0" encoding="utf-8"?>
<!-- Generator: Adobe Illustrator 24.0.2, SVG Export Plug-In . SVG Version: 6.00 Build 0)  -->
<svg version="1.1" id="Layer_1" xmlns="http://www.w3.org/2000/svg" xmlns:xlink="http://www.w3.org/1999/xlink" x="0px" y="0px"
	 viewBox="0 0 1024 1024" style="enable-background:new 0 0 1024 1024;" xml:space="preserve">
<style type="text/css">
	.st0{fill:#A2A9B0;}
</style>
<g>
	<path class="st0" d="M158.5,1011h706.2c80.7,0,146.3-65.6,146.3-146.3V158.4c0-80.7-65.6-146.3-146.3-146.3H158.5
		c-80.7,0-146.3,65.6-146.3,146.3v706.2C12.2,945.4,77.9,1011,158.5,1011z M70.8,158.4c0-48.4,39.4-87.8,87.8-87.8h706.2
		c48.4,0,87.8,39.4,87.8,87.8v706.2c0,48.4-39.4,87.8-87.8,87.8H158.5c-48.4,0-87.8-39.4-87.8-87.8V158.4z"/>
	<path class="st0" d="M511.7,774.9c145.2,0,263.4-118.2,263.4-263.4S656.9,248.2,511.7,248.2S248.3,366.3,248.3,511.6
		S366.4,774.9,511.7,774.9z M511.7,306.7c113,0,204.8,91.9,204.8,204.8s-91.9,204.8-204.8,204.8s-204.8-91.9-204.8-204.8
		S398.7,306.7,511.7,306.7z"/>
	<path class="st0" d="M804.3,306.7c48.4,0,87.8-39.4,87.8-87.8s-39.4-87.8-87.8-87.8s-87.8,39.4-87.8,87.8S755.9,306.7,804.3,306.7z
		 M804.3,189.7c16.1,0,29.3,13.1,29.3,29.3s-13.1,29.3-29.3,29.3S775,235.1,775,218.9S788.2,189.7,804.3,189.7z"/>
</g>
</svg>
