<?xml version="1.0" encoding="utf-8"?>
<!-- Generator: Adobe Illustrator 24.0.2, SVG Export Plug-In . SVG Version: 6.00 Build 0)  -->
<svg version="1.1" id="Layer_1" xmlns="http://www.w3.org/2000/svg" xmlns:xlink="http://www.w3.org/1999/xlink" x="0px" y="0px"
	 viewBox="0 0 1024 1024" style="enable-background:new 0 0 1024 1024;" xml:space="preserve">
<style type="text/css">
	.st0{fill:#013871;}
</style>
<g>
	<g transform="translate(0 -1)">
		<g>
			<g>
				<g>
					<path class="st0" d="M342.7,694.5c40.6,57.2,81.1,108.4,108,141.4c3.9,4.8,7.6,9.2,11.1,13.5h-81.1c-9.1,0-16.4,7.4-16.4,16.4
						s7.4,16.4,16.4,16.4h262.9c9.1,0,16.4-7.4,16.4-16.4s-7.4-16.4-16.4-16.4h-81.1c3.5-4.3,7.2-8.7,11.1-13.5
						c26.8-32.9,67.4-84.2,108-141.4c40.3-55.7,76.6-114.1,108.5-174.9c33.5-65.9,50.6-120.6,50.6-162.6
						c0.1-87.3-34.5-171-96.2-232.7c-4.1-4.3-10.2-6-16-4.5c-5.7,1.5-10.2,6-11.7,11.7c-1.5,5.7,0.2,11.9,4.5,16
						c55.5,55.5,86.7,130.9,86.6,209.4c0,36.8-15.8,86.4-47,147.6c-31.2,59.4-66.7,116.5-106.1,170.9
						c-40.1,56.5-80.1,107.1-106.6,139.6c-8.8,10.8-16.8,20.4-23.5,28.5c-3.2,3.6-7.7,5.7-12.5,5.7c-4.8,0-9.4-2.1-12.5-5.7
						c-6.8-8.1-14.7-17.6-23.5-28.5c-26.5-32.5-66.6-83.1-106.6-139.6c-39.4-54.4-74.8-111.5-106.1-170.9
						c-31.2-61.2-47-110.9-47-147.6c0-119,71.2-226.5,180.7-272.9c73.6-30.9,156.6-30.9,230.2,0c5.4,2.3,11.6,1.5,16.3-2
						c4.7-3.5,7.1-9.3,6.4-15.1c-0.7-5.8-4.5-10.8-9.9-13.1C472.8-16.7,280,61.6,209.4,228.9c-17.1,40.5-25.9,84.1-25.8,128.1
						c0,42,17,96.7,50.6,162.6C266.1,580.4,302.4,638.8,342.7,694.5z"/>
					<path class="st0" d="M512.1,208.7c9.1,0,16.4-7.4,16.4-16.4c0-9.1-7.4-16.4-16.4-16.4c-78.4,0-145.8,55.4-161.1,132.2
						c-15.3,76.9,25.8,153.8,98.3,183.8c72.4,30,155.9,4.7,199.5-60.5s35-152-20.4-207.4c-4.1-4.3-10.2-6-16-4.5
						c-5.7,1.5-10.2,6-11.7,11.7c-1.5,5.7,0.2,11.9,4.5,16c44.3,44.3,51.2,113.8,16.3,166s-101.6,72.4-159.6,48.4
						c-57.9-24-90.8-85.6-78.6-147.1C395.5,253,449.4,208.7,512.1,208.7z"/>
					<path class="st0" d="M998.8,924.5l-101-180.7c-9.1-16.1-26.2-25.9-44.7-25.8H736c-9.1,0-16.4,7.4-16.4,16.4s7.4,16.4,16.4,16.4
						h117.1c6.6-0.1,12.7,3.3,16.1,9l101,180.7c2.8,4.7,2.7,10.5-0.1,15.2c-3.4,5.5-9.4,8.9-15.9,8.7H70.2
						c-6.5,0.2-12.5-3.2-15.9-8.7c-2.8-4.6-2.9-10.5-0.1-15.2l101-180.7c3.3-5.7,9.5-9.1,16-9h117.1c9.1,0,16.4-7.4,16.4-16.4
						s-7.4-16.4-16.4-16.4H171.2c-18.5-0.1-35.6,9.7-44.7,25.8l-101,180.7c-8.4,14.9-8.2,33.1,0.5,47.8
						c9.2,15.6,26.1,25.2,44.2,24.9h883.9c18.1,0.2,35-9.3,44.2-24.9C1007,957.6,1007.2,939.4,998.8,924.5z"/>
					<path class="st0" d="M824.3,800.1h-65.7c-3.2,0-6.4,1-9.1,2.8l-49.3,32.9c-7.5,5-9.6,15.2-4.6,22.8c5,7.5,15.2,9.6,22.8,4.6
						l45.1-30.1h60.8c9.1,0,16.4-7.4,16.4-16.4C840.7,807.5,833.4,800.1,824.3,800.1z"/>
					<path class="st0" d="M725.7,915.1c0,9.1,7.4,16.4,16.4,16.4h131.4c9.1,0,16.4-7.4,16.4-16.4c0-9.1-7.4-16.4-16.4-16.4H742.1
						C733.1,898.7,725.7,906.1,725.7,915.1z"/>
					<path class="st0" d="M315,865.8c7.2,0,13.6-4.7,15.7-11.7c2.1-6.9-0.6-14.4-6.6-18.4l-49.3-32.9c-2.7-1.8-5.9-2.8-9.1-2.8H200
						c-9.1,0-16.4,7.4-16.4,16.4c0,9.1,7.4,16.4,16.4,16.4h60.8l45.1,30.1C308.6,864.9,311.8,865.8,315,865.8z"/>
					<path class="st0" d="M150.7,898.7c-9.1,0-16.4,7.4-16.4,16.4c0,9.1,7.4,16.4,16.4,16.4h131.4c9.1,0,16.4-7.4,16.4-16.4
						c0-9.1-7.4-16.4-16.4-16.4H150.7z"/>
				</g>
			</g>
		</g>
	</g>
</g>
</svg>
