<?xml version="1.0" encoding="utf-8"?>
<!-- Generator: Adobe Illustrator 24.0.2, SVG Export Plug-In . SVG Version: 6.00 Build 0)  -->
<svg version="1.1" id="Layer_1" xmlns="http://www.w3.org/2000/svg" xmlns:xlink="http://www.w3.org/1999/xlink" x="0px" y="0px"
	 viewBox="0 0 1024 1024" style="enable-background:new 0 0 1024 1024;" xml:space="preserve">
<style type="text/css">
	.st0{fill:#013871;}
</style>
<g>
	<g>
		<g>
			<g>
				<path class="st0" d="M1006.4,395.4c-0.1-1.1-0.3-2.3-0.7-3.3c-0.2-1-0.5-1.9-0.9-2.8c-0.5-0.9-1-1.7-1.6-2.5
					c-0.6-0.9-1.4-1.8-2.2-2.6c-0.3-0.2-0.4-0.5-0.7-0.8L841.6,260.1V132.4c0-27.3-22.2-49.5-49.5-49.5H613.2l-71.6-55.6
					c-17.7-13.8-42.5-13.8-60.2,0l-71.6,55.6H231c-27.3,0-49.5,22.2-49.5,49.5v127.7L22.8,383.4c-0.3,0.2-0.4,0.5-0.7,0.8
					c-0.8,0.8-1.6,1.6-2.2,2.6c-0.6,0.8-1.2,1.6-1.6,2.5c-0.4,0.9-0.7,1.9-0.9,2.8c-0.3,1.1-0.6,2.2-0.7,3.3c0,0.3-0.2,0.6-0.2,1
					v561.1c0,10.5,3.4,20.7,9.7,29.1c0.1,0.1,0.1,0.3,0.2,0.5c0.1,0.1,0.4,0.3,0.5,0.5c9.3,12.2,23.7,19.4,39,19.5h891.1
					c15.4,0,29.9-7.3,39.1-19.5c0.1-0.2,0.3-0.2,0.4-0.4c0.1-0.2,0.1-0.3,0.2-0.5c6.3-8.4,9.7-18.6,9.7-29.1V396.4
					C1006.6,396.1,1006.4,395.8,1006.4,395.4z M501.6,53.3c5.8-4.6,13.9-4.6,19.7,0l38.1,29.6h-95.7L501.6,53.3z M70.1,974
					l431.5-335.2c5.8-4.6,13.9-4.6,19.7,0L952.9,974H70.1z M973.6,948.3l-432-335.5c-17.7-13.8-42.5-13.8-60.2,0l-432,335.5V421.6
					l270.4,210c7.2,5.6,17.6,4.3,23.2-2.9c5.6-7.2,4.3-17.6-2.9-23.2L65.4,392.1l116.1-90.2v127.5c0,9.1,7.4,16.5,16.5,16.5
					c9.1,0,16.5-7.4,16.5-16.5v-297c0-9.1,7.4-16.5,16.5-16.5h561.1c9.1,0,16.5,7.4,16.5,16.5v297c0,9.1,7.4,16.5,16.5,16.5
					s16.5-7.4,16.5-16.5V301.9l116.1,90.2L682.5,605.8c-4.7,3.6-7.2,9.4-6.4,15.3s4.7,10.9,10.2,13.1c5.5,2.2,11.8,1.3,16.4-2.4
					l270.9-210.4L973.6,948.3L973.6,948.3z"/>
				<path class="st0" d="M709.6,412.9v-66c0-109.4-88.7-198-198-198s-198,88.7-198,198s88.7,198,198,198c9.1,0,16.5-7.4,16.5-16.5
					s-7.4-16.5-16.5-16.5c-91.1,0-165-73.9-165-165s73.9-165,165-165s165,73.9,165,165v66c0,18.2-14.8,33-33,33
					c-18.2,0-33-14.8-33-33v-66c0-9.1-7.4-16.5-16.5-16.5s-16.5,7.4-16.5,16.5c0,36.5-29.6,66-66,66c-36.5,0-66-29.6-66-66
					s29.6-66,66-66c9.1,0,16.5-7.4,16.5-16.5s-7.4-16.5-16.5-16.5c-44.3-0.1-83.3,29.3-95.4,71.9s5.5,88.1,43.2,111.4
					c37.7,23.3,86.3,18.7,118.9-11.3c3.6,34.9,33.9,60.8,69,59C682.2,477,709.7,448,709.6,412.9z"/>
			</g>
		</g>
	</g>
</g>
</svg>
