<?xml version="1.0" encoding="utf-8"?>
<!-- Generator: Adobe Illustrator 24.0.2, SVG Export Plug-In . SVG Version: 6.00 Build 0)  -->
<svg version="1.1" id="Layer_1" xmlns="http://www.w3.org/2000/svg" xmlns:xlink="http://www.w3.org/1999/xlink" x="0px" y="0px"
	 viewBox="0 0 1024 1024" style="enable-background:new 0 0 1024 1024;" xml:space="preserve">
<style type="text/css">
	.st0{fill:#013871;}
</style>
<g transform="translate(-1 -1)">
	<g>
		<g>
			<g>
				<path class="st0" d="M979.4,780.2L780.3,647.5c-25.3-16.7-59.1-11.2-77.8,12.6l-58,74.6c-7.5,9.8-21,12.7-31.8,6.7l-11-6.1
					c-36.6-19.9-82.1-44.7-173.7-136.5S311.4,461.6,291.5,425.1l-6-11c-6.1-10.8-3.3-24.4,6.6-31.9l74.5-58
					c23.8-18.7,29.3-52.5,12.7-77.8L246.4,47.3c-17.1-25.7-51.4-33.5-77.9-17.5l-83.2,50c-26.2,15.4-45.3,40.3-53.5,69.5
					C1.7,258.5,24.2,447,301.9,724.7C522.8,945.6,687.3,1005,800.3,1005c26,0.1,51.9-3.3,77-10.1c29.2-8.2,54.1-27.4,69.5-53.5
					l50.1-83.2C1012.8,831.7,1005.1,797.4,979.4,780.2z M968.6,841.4l-49.9,83.2c-11,18.9-28.9,32.8-50,38.7
					c-100.8,27.7-277,4.8-543.6-261.8S35.6,258.8,63.3,157.9c6-21.1,19.9-39,38.8-50.1l83.2-49.9c11.5-6.9,26.4-3.6,33.8,7.6
					l72.1,108.3l60.5,90.8c7.2,11,4.9,25.7-5.5,33.8l-74.5,58c-22.7,17.3-29.2,48.7-15.2,73.6l5.9,10.8
					c20.9,38.4,47,86.2,142.1,181.3c95.1,95.1,142.9,121.1,181.3,142.1l10.8,5.9c24.9,14,56.3,7.5,73.6-15.2l58-74.5
					c8.1-10.3,22.8-12.7,33.8-5.5L961,807.6C972.2,815,975.6,829.9,968.6,841.4z"/>
				<path class="st0" d="M578.9,185.5c153.8,0.2,278.5,124.8,278.6,278.6c0,9.1,7.3,16.4,16.4,16.4c9.1,0,16.4-7.3,16.4-16.4
					c-0.2-171.9-139.5-311.2-311.4-311.4c-9.1,0-16.4,7.3-16.4,16.4S569.9,185.5,578.9,185.5z"/>
				<path class="st0" d="M578.9,283.8c99.5,0.1,180.2,80.8,180.3,180.3c0,9.1,7.3,16.4,16.4,16.4c9.1,0,16.4-7.3,16.4-16.4
					c-0.1-117.6-95.5-212.9-213.1-213.1c-9.1,0-16.4,7.3-16.4,16.4S569.9,283.8,578.9,283.8z"/>
				<path class="st0" d="M578.9,382.2c45.2,0.1,81.9,36.7,82,82c0,9.1,7.3,16.4,16.4,16.4s16.4-7.3,16.4-16.4
					c-0.1-63.3-51.4-114.7-114.7-114.7c-9.1,0-16.4,7.3-16.4,16.4C562.5,374.8,569.9,382.2,578.9,382.2z"/>
			</g>
		</g>
	</g>
</g>
</svg>
