<?xml version="1.0" encoding="utf-8"?>
<!-- Generator: Adobe Illustrator 24.0.2, SVG Export Plug-In . SVG Version: 6.00 Build 0)  -->
<svg version="1.1" id="Layer_1" xmlns="http://www.w3.org/2000/svg" xmlns:xlink="http://www.w3.org/1999/xlink" x="0px" y="0px"
	 viewBox="0 0 1024 1024" style="enable-background:new 0 0 1024 1024;" xml:space="preserve">
<style type="text/css">
	.st0{fill:#A2A9B0;stroke:#A2A9B0;stroke-miterlimit:10;}
</style>
<g>
	<g>
		<path class="st0" d="M884.1,41.9H139.2C67.8,41.9,9.8,100,9.8,171.3v682.2c0,71.3,58,129.4,129.4,129.4h654.7
			c38.7,0,75.1-15.1,102.5-42.5l74.6-74.6c27.4-27.4,42.5-63.8,42.5-102.5v-592C1013.4,100,955.4,41.9,884.1,41.9z M139.2,104.6
			h744.9c36.8,0,66.6,29.9,66.6,66.6v90.2H72.5v-90.2C72.5,134.5,102.4,104.6,139.2,104.6z M72.5,853.5V324.2h878.2v407.7h-98
			c-49.7,0-90.2,40.5-90.2,90.2v98H139.2C102.4,920.1,72.5,890.2,72.5,853.5z M926.6,821.4L852,896c-7.8,7.8-16.9,13.8-26.8,17.9
			v-91.8c0-15.1,12.3-27.4,27.4-27.4h91.8C940.5,804.6,934.4,813.6,926.6,821.4z"/>
		<path class="st0" d="M793.9,449.7c0-17.3-14-31.4-31.4-31.4H260.7c-17.3,0-31.4,14-31.4,31.4c0,17.3,14,31.4,31.4,31.4h501.8
			C779.9,481,793.9,467,793.9,449.7z"/>
		<path class="st0" d="M699.8,575.1H323.4c-17.3,0-31.4,14-31.4,31.4s14,31.4,31.4,31.4h376.4c17.3,0,31.4-14,31.4-31.4
			S717.1,575.1,699.8,575.1z"/>
	</g>
</g>
</svg>
