<?xml version="1.0" encoding="utf-8"?>
<!-- Generator: Adobe Illustrator 24.0.2, SVG Export Plug-In . SVG Version: 6.00 Build 0)  -->
<svg version="1.1" id="Layer_1" xmlns="http://www.w3.org/2000/svg" xmlns:xlink="http://www.w3.org/1999/xlink" x="0px" y="0px"
	 viewBox="0 0 1024 1024" style="enable-background:new 0 0 1024 1024;" xml:space="preserve">
<style type="text/css">
	.st0{fill:#A2A9B0;}
</style>
<path class="st0" d="M1008,213.8c-62.4,2.9-61,2.6-68.1,3.2l37-105.5c0,0-115.4,42.4-144.6,50c-76.8-69-191-72.1-272.6-21.9
	c-66.8,41.1-102.7,111.7-90.7,194.1c-130.1-18.1-239.7-79.7-326.2-183.7l-27.4-32.9l-20.5,37.6C69,202.3,60.5,256.5,70.7,307.6
	c4.2,20.9,11.4,40.9,21.3,59.6l-23.5-9.1l-2.8,39.2c-2.8,39.8,10.4,86.4,35.5,124.4c7.1,10.7,16.1,22.5,27.6,34.1l-12.1-1.9l14.8,45
	C151,658,191.4,703.7,243.9,729.1c-52.4,22.2-94.7,36.4-164.3,59.3L16,809.3l58.8,32.1c22.4,12.3,101.6,53.2,179.8,65.5
	c173.9,27.3,369.8,5.1,501.6-113.7c111-100,147.5-242.3,139.9-390.3c-1.1-22.4,5-43.8,17.3-60.2C938,309.9,1007.8,214.1,1008,213.8z
	 M866.9,307.9c-20.4,27.3-30.6,62.1-28.8,98c7.6,149.3-33,265.1-120.8,344.2c-102.5,92.3-267.9,128.6-453.7,99.4
	c-33.7-5.3-68.4-17.1-97.2-28.9c58.3-20.1,103.3-37.9,176.1-72.4L444,700.2L331.9,693c-53.7-3.4-98.4-29.5-125.9-71.7
	c14.6-0.8,28.7-3.2,42.7-7.1l106.9-29.8L247.8,558c-52.4-12.8-82.2-44.2-98.1-68.2c-10.4-15.8-17.2-32-21.3-46.9
	c10.8,2.9,23.4,5,43.7,7l99.8,9.9l-79.1-61.7c-57-44.4-79.8-111.2-63.1-175.3c177.8,184.4,386.5,170.5,407.5,175.4
	c-4.6-44.9-4.7-45-6-49.3c-26.9-95.1,32.1-143.4,58.7-159.8c55.6-34.1,143.7-39.3,204.8,17c13.2,12.1,31,16.9,47.7,12.8
	c15-3.7,27.3-7.7,39.3-12l-25.1,71.6l32,0C882.8,286.6,875.6,296.3,866.9,307.9z"/>
</svg>
