<?xml version="1.0" encoding="utf-8"?>
<!-- Generator: Adobe Illustrator 24.0.2, SVG Export Plug-In . SVG Version: 6.00 Build 0)  -->
<svg version="1.1" id="Layer_1" xmlns="http://www.w3.org/2000/svg" xmlns:xlink="http://www.w3.org/1999/xlink" x="0px" y="0px"
	 viewBox="0 0 1024 1024" style="enable-background:new 0 0 1024 1024;" xml:space="preserve">
<style type="text/css">
	.st0{fill:#A2A9B0;}
</style>
<g>
	<path class="st0" d="M254.1,939.7c77.2,46.4,165.4,70.9,256.1,70.9c274.7,0,501.2-224.2,501.2-499.3
		c0-274.8-226.1-499.3-501.2-499.3c-274.2,0-497.3,224-497.3,499.3c0,91.9,24.5,180.8,70.9,258L12.6,1011L254.1,939.7z M71.4,511.4
		c0-243,196.8-440.8,438.8-440.8c244.1,0,442.7,197.7,442.7,440.8c0,243-198.6,440.8-442.7,440.8c-84,0-165.6-23.8-236-68.8
		l-11.2-7.2L99.1,924.5l48.3-163.9l-7.2-11.2C95.2,678.9,71.4,596.7,71.4,511.4z"/>
	<path class="st0" d="M255.7,419.4c9.7,50.7,38.3,148.4,121.9,231.9s181.1,112.2,231.9,121.9c58.1,11.1,143.4,12.7,185.1-28.9
		l23.2-23.2c11.7-11.7,18.2-27.3,18.2-43.9c0-16.6-6.5-32.2-18.2-43.9l-92.9-92.9c-11.7-11.7-27.3-18.2-43.9-18.2
		c-16.6,0-32.2,6.5-43.9,18.2l-23.2,23.2c-14.2,14.2-41,14.3-55.3,0.2L465.8,467c-0.1-0.1-0.3-0.3-0.4-0.4
		c-14.2-14.2-14.2-37.3,0-51.6l23.2-23.2c24.3-24.3,24.3-63.6,0-87.8l-92.9-92.9c-24.2-24.2-63.6-24.2-87.8,0l-23.2,23.2v0
		C251.4,267.6,240.3,338.5,255.7,419.4z M326,275.7c24.4-23.8,23.1-24.3,25.8-24.3c0.9,0,1.8,0.4,2.5,1.1c97.9,98.4,94,92.7,94,95.5
		c0,1-0.4,1.8-1.1,2.5L424,373.7c-37,37-37.1,96.9-0.2,134.1l92.7,96.6c0.1,0.1,0.3,0.3,0.4,0.4c37,37,101.1,37.1,138.2,0l23.2-23.2
		c1.4-1.4,3.7-1.4,5.1,0c97.9,98.4,94,92.6,94,95.5c0,1-0.4,1.8-1.1,2.5l-23.2,23.2c-15.9,15.9-66.6,25.4-132.8,12.8
		c-44.1-8.4-129-33.3-201.4-105.8s-97.4-157.3-105.8-201.4C300.6,342.3,310.1,291.6,326,275.7z"/>
</g>
</svg>
